<svg width="1160" height="310" viewBox="0 0 1160 310" fill="none" xmlns="http://www.w3.org/2000/svg">
	<g clip-path="url(#clip0_3606_1138)">
		<rect width="1160" height="310" rx="29.9978" fill="#F5F5F5" />
		<circle cx="1051.24" cy="41.0223" r="69.5956" transform="rotate(35.3222 1051.24 41.0223)" fill="#565EEF" />
		<circle cx="867.022" cy="172.876" r="69.5956" transform="rotate(35.3222 867.022 172.876)" fill="#565EEF" />
		<rect x="1006.73" y="94.5564" width="139.191" height="140.953" transform="rotate(35.3222 1006.73 94.5564)"
			fill="#333BCB" />
		<g filter="url(#filter0_b_3606_1138)">
			<path fill-rule="evenodd" clip-rule="evenodd"
				d="M30 0C13.4315 0 0 13.4315 0 30V280C0 296.569 13.4315 310 30 310H1130C1146.57 310 1160 296.569 1160 280V30C1160 13.4315 1146.57 0 1130 0H30ZM999.5 41C944.548 41 900 85.5477 900 140.5V271H1099V140.5C1099 85.5477 1054.45 41 999.5 41Z"
				fill="#CDCDCD" fill-opacity="0.1" />
		</g>
		<g style="mix-blend-mode:multiply" opacity="0.36" filter="url(#filter1_i_3606_1138)">
			<path d="M900 141C900 85.7715 944.772 41 1000 41V41C1055.23 41 1100 85.7715 1100 141V271H900V141Z"
				fill="#F5F5F5" />
		</g>
	</g>
	<defs>
		<filter id="filter0_b_3606_1138" x="-29.0373" y="-29.0373" width="1218.07" height="368.075"
			filterUnits="userSpaceOnUse" color-interpolation-filters="sRGB">
			<feFlood flood-opacity="0" result="BackgroundImageFix" />
			<feGaussianBlur in="BackgroundImageFix" stdDeviation="14.5187" />
			<feComposite in2="SourceAlpha" operator="in" result="effect1_backgroundBlur_3606_1138" />
			<feBlend mode="normal" in="SourceGraphic" in2="effect1_backgroundBlur_3606_1138" result="shape" />
		</filter>
		<filter id="filter1_i_3606_1138" x="900" y="41" width="211.222" height="241.222" filterUnits="userSpaceOnUse"
			color-interpolation-filters="sRGB">
			<feFlood flood-opacity="0" result="BackgroundImageFix" />
			<feBlend mode="normal" in="SourceGraphic" in2="BackgroundImageFix" result="shape" />
			<feColorMatrix in="SourceAlpha" type="matrix" values="0 0 0 0 0 0 0 0 0 0 0 0 0 0 0 0 0 0 127 0"
				result="hardAlpha" />
			<feOffset dx="11.2216" dy="11.2216" />
			<feGaussianBlur stdDeviation="6.07837" />
			<feComposite in2="hardAlpha" operator="arithmetic" k2="-1" k3="1" />
			<feColorMatrix type="matrix" values="0 0 0 0 0.337255 0 0 0 0 0.368627 0 0 0 0 0.937255 0 0 0 0.5 0" />
			<feBlend mode="normal" in2="shape" result="effect1_innerShadow_3606_1138" />
		</filter>
		<clipPath id="clip0_3606_1138">
			<rect width="1160" height="310" rx="29.9978" fill="white" />
		</clipPath>
	</defs>
</svg>